<!-- Generated by IcoMoon.io -->
<svg version="1.1" xmlns="http://www.w3.org/2000/svg" width="32" height="32" viewBox="0 0 32 32">
<title>cow-1</title>
<path fill="#f8d24e" d="M16 0c8.837 0 16 7.163 16 16s-7.163 16-16 16c-8.837 0-16-7.163-16-16s7.163-16 16-16z"></path>
<path fill="#131313" d="M8.922 4.618c-0.188 0.163-0.725 1.283-0.918 1.894-0.229 0.757-0.307 1.325-0.276 2.109 0.042 1.12 0.323 1.97 0.943 2.857 0.162 0.233 0.292 0.433 0.292 0.449 0 0.011-0.099 0.022-0.224 0.022-0.538 0-1.544 0.179-2.315 0.411-1.225 0.369-1.944 1.012-1.944 1.732 0 0.255 0.229 0.687 0.474 0.909 0.474 0.428 1.512 0.834 2.627 1.028 0.386 0.070 1.533 0.189 1.788 0.195 0.047 0 0.063 0.25 0.063 1.066 0 0.703 0.026 1.25 0.078 1.585 0.188 1.201 0.771 2.472 1.542 3.371l0.266 0.308-0.177 0.287c-0.26 0.406-0.36 0.714-0.39 1.174-0.079 1.104 0.609 2.083 1.939 2.771 2.532 1.315 6.468 0.801 7.944-1.039 0.719-0.899 0.803-1.926 0.234-2.857l-0.177-0.287 0.318-0.384c0.595-0.714 0.98-1.428 1.272-2.332 0.244-0.768 0.339-1.51 0.339-2.684 0-0.535 0.015-0.979 0.042-0.979 0.24-0.005 1.392-0.13 1.757-0.195 1.121-0.195 2.138-0.595 2.627-1.028 0.245-0.222 0.474-0.655 0.474-0.909 0-0.801-0.813-1.45-2.325-1.84-0.495-0.13-1.428-0.287-1.882-0.314l-0.214-0.017 0.235-0.324c0.292-0.395 0.657-1.163 0.797-1.667 0.396-1.455 0.151-3.149-0.699-4.767-0.354-0.671-0.599-0.828-0.886-0.563-0.109 0.104-0.156 0.244-0.26 0.753-0.323 1.618-0.923 2.9-1.798 3.846l-0.386 0.422h-8.246l-0.344-0.373c-0.854-0.941-1.475-2.272-1.798-3.896-0.104-0.509-0.151-0.649-0.26-0.752-0.172-0.157-0.339-0.152-0.531 0.016zM9.588 7.827c0.276 0.605 0.621 1.174 1.027 1.699l0.323 0.417-0.339 0.254c-0.318 0.243-0.615 0.59-0.845 0.986l-0.099 0.178-0.25-0.34c-0.855-1.18-1.069-2.624-0.615-4.124 0.219-0.724 0.214-0.719 0.412-0.092 0.094 0.303 0.271 0.763 0.386 1.023zM23.156 6.685c0.189 0.524 0.298 1.129 0.298 1.76 0 0.022-0 0.045-0 0.067l0-0.003c0 0.984-0.26 1.818-0.808 2.564l-0.245 0.335-0.182-0.308c-0.236-0.4-0.542-0.733-0.903-0.994l-0.010-0.007c-0.141-0.092-0.25-0.184-0.25-0.195 0-0.016 0.099-0.141 0.224-0.276 0.579-0.644 1.199-1.802 1.507-2.797 0.093-0.308 0.188-0.563 0.203-0.563s0.094 0.19 0.166 0.417zM20.493 10.641c0.579 0.243 1.131 0.941 1.22 1.531 0.047 0.325 0.156 0.531 0.297 0.563 0.063 0.010 0.495 0.049 0.959 0.081 1.647 0.109 2.945 0.46 3.498 0.941 0.255 0.227 0.229 0.417-0.078 0.65-0.615 0.465-1.944 0.817-3.3 0.877-0.897 0.038-1.084 0.064-1.204 0.189-0.089 0.092-0.099 0.189-0.099 1.169 0 1.326-0.068 2.089-0.235 2.705-0.234 0.838-0.698 1.732-1.24 2.365l-0.224 0.26-0.464-0.276c-0.495-0.307-1.069-0.547-1.681-0.69l-0.039-0.008c-1.976-0.471-4.16-0.184-5.629 0.741l-0.339 0.216-0.214-0.254c-0.292-0.341-0.751-1.071-0.933-1.482-0.401-0.931-0.521-1.688-0.521-3.355 0-1.618 0.083-1.499-1.116-1.564-1.533-0.081-2.701-0.357-3.436-0.822-0.542-0.346-0.453-0.655 0.303-1.018 0.724-0.352 1.72-0.563 3.101-0.649 1.074-0.070 1.1-0.086 1.199-0.606 0.146-0.785 0.724-1.434 1.455-1.64 0.182-0.054 1.204-0.065 4.332-0.060l4.092 0.011 0.297 0.125zM17.564 21.841c1.277 0.314 2.231 0.898 2.643 1.623 0.099 0.168 0.141 0.34 0.161 0.606 0.021 0.33 0.006 0.411-0.12 0.682-0.579 1.229-2.705 2.040-4.868 1.856-2.601-0.216-4.311-1.667-3.638-3.090 0.365-0.768 1.6-1.504 2.903-1.72 0.214-0.032 0.428-0.070 0.469-0.081s0.511-0.011 1.043 0c0.724 0.017 1.073 0.049 1.407 0.125z"></path>
<path fill="#131313" d="M12.393 13.351c-0.323 0.109-0.542 0.25-0.834 0.541-0.256 0.243-0.276 0.53-0.063 0.703 0.198 0.162 0.386 0.141 0.625-0.070 0.303-0.265 0.538-0.374 0.829-0.374 0.292-0.005 0.516 0.098 0.829 0.374 0.239 0.211 0.427 0.232 0.625 0.070 0.104-0.087 0.136-0.157 0.136-0.32 0-0.167-0.036-0.243-0.219-0.427-0.516-0.519-1.283-0.719-1.929-0.498zM18.47 13.345c-0.333 0.125-0.761 0.406-0.932 0.617-0.167 0.206-0.173 0.438 0 0.612 0.172 0.184 0.38 0.173 0.63-0.033 0.615-0.509 1.074-0.525 1.642-0.054 0.146 0.125 0.312 0.222 0.365 0.222 0.255 0 0.464-0.227 0.464-0.498 0-0.173-0.433-0.573-0.824-0.763-0.433-0.211-0.948-0.249-1.345-0.102zM13.149 23.361c-0.151 0.146-0.204 0.356-0.125 0.525 0.058 0.135 0.146 0.189 0.506 0.287 0.162 0.043 0.23 0.097 0.287 0.232 0.073 0.179 0.078 0.179 0.48 0.195l0.401 0.017v-0.152c-0.005-0.216-0.125-0.53-0.282-0.746-0.182-0.25-0.5-0.412-0.86-0.444-0.245-0.021-0.307-0.011-0.406 0.087zM18.127 23.323c-0.26 0.070-0.636 0.422-0.74 0.698-0.052 0.145-0.087 0.313-0.099 0.487l-0 0.006c-0.010 0.232 0.010 0.287 0.136 0.4 0.307 0.271 0.714 0.060 0.714-0.373 0-0.211 0.156-0.357 0.433-0.411 0.292-0.054 0.396-0.173 0.401-0.449 0-0.363-0.323-0.503-0.845-0.357z"></path>
</svg>
